<svg width="700" height="700" viewBox="0 0 700 700" fill="none" xmlns="http://www.w3.org/2000/svg">
<rect width="700" height="700" rx="350" fill="#0000C1"/>
<mask id="mask0_11814_21837" style="mask-type:alpha" maskUnits="userSpaceOnUse" x="73" y="33" width="554" height="554">
<rect x="73" y="33" width="554" height="554" fill="#AAAAAA"/>
</mask>
<g mask="url(#mask0_11814_21837)">
<mask id="mask1_11814_21837" style="mask-type:alpha" maskUnits="userSpaceOnUse" x="100" y="78" width="501" height="434">
<path d="M350.406 78.5967L600.518 511.804H100.293L350.406 78.5967Z" fill="#959595"/>
</mask>
<g mask="url(#mask1_11814_21837)">
<rect x="329.404" y="112.234" width="47.9819" height="478.417" transform="rotate(30 329.404 112.234)" fill="white"/>
<rect x="349.785" y="465" width="47.9819" height="478.417" transform="rotate(90 349.785 465)" fill="white"/>
<rect width="47.9819" height="475.617" transform="matrix(-0.866025 0.5 0.5 0.866025 370.369 112.949)" fill="white"/>
<rect x="330.39" y="112.909" width="40.0324" height="37.1729" fill="white"/>
<mask id="mask2_11814_21837" style="mask-type:alpha" maskUnits="userSpaceOnUse" x="204" y="350" width="190" height="164">
<path d="M298.936 350.245L393.037 513.234H204.834L298.936 350.245Z" fill="#AFAFAF"/>
</mask>
<g mask="url(#mask2_11814_21837)">
<rect width="47.9819" height="211.746" transform="matrix(-0.866025 0.5 0.5 0.866025 298.263 346.564)" fill="white"/>
</g>
<path d="M350.339 260.298L322.463 308.42L323.115 309.487L324.419 311.62L327.027 315.885L346.167 349.035L384.446 415.336L461.003 547.938L502.557 523.947L425.999 391.345L387.72 325.044L368.581 291.894L359.011 275.319L354.226 267.031L351.834 262.887L350.638 260.815L350.339 260.298Z" fill="white"/>
</g>
</g>
</svg>
